<?xml version="1.0" standalone="no"?>
<!DOCTYPE svg PUBLIC "-//W3C//DTD SVG 20010904//EN"
 "http://www.w3.org/TR/2001/REC-SVG-20010904/DTD/svg10.dtd">
<svg version="1.0" xmlns="http://www.w3.org/2000/svg"
   viewBox="0 0 3987.000000 381.000000"
 preserveAspectRatio="xMidYMid meet">
<metadata>
Created by potrace 1.16, written by Peter Selinger 2001-2019
</metadata>
<g transform="translate(0.000000,381.000000) scale(0.100000,-0.100000)"
fill="#000000" stroke="none">
<path d="M2726 3777 c-15 -19 -26 -45 -26 -58 0 -16 -11 -32 -35 -48 l-35 -24
0 -218 0 -218 35 -27 c25 -19 35 -34 35 -54 0 -32 88 -145 120 -155 23 -7 24
-27 5 -100 l-13 -50 -1 61 c-1 54 -4 63 -33 91 l-33 32 -612 -6 -613 -6 -25
-42 -24 -43 5 -258 6 -259 -36 -34 -36 -35 -33 32 c-18 18 -38 32 -45 32 -9 0
-12 66 -12 270 l0 270 -48 30 -47 30 -562 0 -563 0 -50 -31 -50 -31 0 -707 0
-707 53 -27 c34 -17 75 -29 119 -32 47 -5 71 -12 84 -26 16 -18 34 -19 404
-19 369 0 388 1 404 19 13 14 38 21 94 27 55 5 87 14 119 33 l43 26 0 187 c0
140 3 188 12 188 7 0 27 14 45 32 l32 31 39 -34 39 -34 5 -190 c3 -104 10
-203 15 -220 9 -30 10 -30 109 -40 91 -9 104 -13 142 -43 l42 -34 319 11 c174
6 334 11 354 11 23 0 46 8 65 25 25 21 40 25 95 25 l65 0 97 -75 c54 -41 102
-75 107 -75 4 0 8 -11 8 -23 0 -23 -3 -24 -107 -30 -58 -4 -126 -7 -151 -7
-29 0 -87 -16 -159 -42 l-113 -43 0 -341 0 -341 113 -52 112 -51 265 -25 c203
-19 326 -25 527 -25 l263 0 92 42 c80 35 109 56 209 147 101 92 117 111 122
144 3 21 8 41 11 44 3 3 72 25 153 48 l148 41 105 82 c137 105 165 153 211
362 27 125 35 149 61 173 l28 27 7 174 c5 146 9 177 24 197 18 24 19 21 19
-123 l0 -146 43 -25 c28 -16 66 -27 112 -31 48 -5 76 -13 91 -27 19 -18 38
-19 409 -19 371 0 390 1 409 19 15 14 43 22 91 27 46 4 84 15 113 31 l42 25 1
186 1 187 39 34 40 34 32 -31 c18 -18 38 -32 44 -32 13 0 23 -116 23 -264 0
-61 5 -127 10 -147 10 -36 10 -36 78 -42 37 -4 83 -7 102 -7 26 0 43 -9 71
-36 l37 -36 358 12 c356 12 358 12 387 36 22 19 40 24 81 24 108 0 146 10 167
44 17 28 19 52 19 224 0 143 3 192 12 192 7 0 27 14 45 32 l32 31 40 -34 39
-34 1 -176 1 -177 54 -111 c38 -79 71 -132 115 -181 l63 -70 1769 0 1769 0
109 72 108 72 66 121 67 122 1 164 1 164 39 34 40 34 34 -33 35 -34 0 -166 0
-167 59 -124 c45 -94 74 -140 121 -191 l62 -68 1769 0 1769 0 108 72 108 71
67 123 67 122 0 166 c0 123 3 166 12 166 7 0 27 14 45 32 l33 32 36 -36 36
-35 5 -479 c3 -382 7 -493 19 -546 l16 -66 130 -7 131 -8 54 -44 55 -45 426
11 c531 14 544 15 583 48 27 23 43 27 142 34 62 4 121 8 132 8 12 1 29 15 40
34 19 30 20 58 25 544 l5 513 37 37 37 36 40 -34 39 -34 1 -147 c1 -172 14
-247 45 -253 12 -2 59 -6 106 -10 79 -5 88 -8 120 -39 l35 -33 355 11 c343 11
356 12 385 33 24 19 49 24 131 29 135 9 134 6 135 237 l1 172 39 34 40 34 34
-33 35 -34 0 -187 0 -187 43 -25 c28 -16 66 -27 112 -31 48 -5 76 -13 91 -27
19 -18 38 -19 411 -19 372 0 391 1 407 19 12 14 38 22 81 26 l63 7 112 -86
c61 -48 118 -90 126 -93 8 -3 14 -15 14 -28 0 -23 -2 -23 -147 -29 -140 -7
-154 -9 -265 -49 l-118 -42 0 -341 0 -341 113 -51 113 -52 265 -25 c205 -19
323 -25 526 -25 l262 0 92 41 c81 35 108 54 208 147 102 94 117 111 125 149 9
48 -11 39 211 101 94 26 108 33 208 111 97 75 111 90 143 152 22 45 46 121 68
216 29 124 39 151 61 171 26 22 27 24 32 194 6 170 7 173 35 212 l28 39 0
-156 0 -155 43 -25 c28 -16 65 -26 111 -30 50 -5 75 -12 91 -27 21 -19 34 -20
413 -20 378 0 391 1 405 20 10 15 30 21 88 26 51 5 87 14 117 31 l42 25 0 99
c0 94 1 99 21 99 12 0 37 14 56 31 l35 31 32 -31 c18 -17 40 -31 49 -31 15 0
17 -12 17 -84 0 -47 5 -107 11 -134 l12 -49 99 -7 c94 -6 102 -8 141 -40 l42
-34 355 11 c344 10 356 11 385 33 24 18 49 23 130 29 135 9 135 10 135 220 l0
153 40 4 40 4 0 -151 0 -150 43 -26 c31 -19 63 -28 117 -32 57 -6 79 -12 92
-27 16 -19 29 -20 404 -20 373 0 389 1 409 20 15 14 43 22 95 28 55 6 87 15
118 35 l42 27 1 178 1 177 39 34 39 33 45 -33 44 -34 1 -336 0 -337 44 -36
c37 -30 59 -39 128 -51 46 -9 99 -24 119 -35 79 -43 150 -49 728 -59 l553 -11
72 42 71 42 560 14 560 15 83 38 82 38 0 338 0 339 35 34 35 34 37 -31 38 -30
6 -419 c4 -292 9 -433 18 -466 l13 -46 56 -6 c32 -3 93 -8 137 -12 76 -6 81
-8 129 -50 l50 -44 66 5 c36 3 254 10 485 16 l420 11 36 28 c33 27 43 29 163
36 l128 7 23 36 c23 36 23 38 28 465 l5 428 33 34 c18 19 35 34 38 34 4 0 23
-17 45 -36 37 -35 38 -38 46 -130 5 -52 13 -101 19 -108 7 -8 46 -15 107 -19
93 -5 98 -7 133 -40 l36 -34 355 11 c343 11 356 12 386 33 26 19 51 24 133 29
99 7 103 8 117 35 9 18 14 58 14 114 0 59 4 85 12 85 7 0 27 14 45 32 l33 32
35 -34 c35 -34 35 -35 35 -120 l0 -85 45 -27 c33 -20 64 -29 119 -34 55 -5 80
-12 92 -25 16 -18 39 -19 409 -19 369 0 393 1 409 19 12 13 37 20 87 25 49 4
84 14 115 32 l44 26 0 87 c0 86 0 87 35 121 l35 34 35 -35 35 -35 9 -424 c5
-269 13 -438 20 -462 13 -40 2 -37 205 -54 76 -6 82 -9 125 -49 l46 -42 485
14 485 14 41 29 c39 28 50 30 168 36 l127 7 24 42 25 42 0 477 0 478 39 -31
c21 -17 46 -31 55 -31 10 0 16 -9 16 -25 0 -13 6 -28 13 -32 7 -4 23 -30 34
-58 l21 -50 59 -3 58 -3 33 -94 c39 -109 145 -271 216 -331 44 -37 50 -54 20
-54 -9 0 -53 -34 -98 -75 l-82 -75 -42 -140 c-23 -76 -42 -149 -42 -160 0 -11
13 -46 29 -78 16 -31 37 -83 47 -114 16 -52 28 -67 113 -146 53 -48 174 -141
269 -205 170 -115 175 -118 380 -193 l207 -77 475 -10 475 -11 69 50 c38 27
91 74 118 105 40 46 50 65 54 105 5 46 3 51 -28 81 -18 17 -60 58 -93 91 -37
36 -81 68 -115 82 l-56 24 23 126 c18 97 23 162 23 290 l0 165 -49 175 c-61
218 -123 355 -193 427 l-51 52 7 73 c12 137 -17 275 -97 453 -56 126 -103 184
-211 264 -122 91 -179 117 -288 136 l-38 6 0 118 0 119 -29 12 c-22 9 -34 9
-50 0 -17 -9 -25 -8 -37 5 -37 36 -178 3 -261 -62 l-38 -31 -182 -4 c-171 -4
-183 -3 -183 14 0 17 -13 18 -169 18 -146 0 -176 -3 -215 -20 l-46 -19 0 -96
0 -95 -40 0 -40 0 0 -109 0 -109 -35 -31 c-20 -17 -37 -31 -38 -31 -1 0 -1
242 1 537 l3 537 -43 43 -42 43 -411 0 c-227 0 -595 -3 -819 -7 l-408 -6 -33
-51 -34 -51 7 -518 7 -518 -30 -29 -30 -29 -37 35 -38 34 0 364 0 363 -40 27
-40 26 -576 0 -575 0 -45 -26 -44 -26 -1 -366 -1 -367 -37 -32 -36 -31 -38 34
-37 34 0 377 0 376 -26 34 -25 33 -617 0 -617 0 -25 -43 -25 -42 3 -320 c2
-176 5 -342 7 -370 4 -48 3 -51 -36 -84 l-40 -34 -34 33 -35 34 0 530 0 530
-42 43 -42 43 -406 0 c-223 0 -590 -3 -817 -7 l-412 -6 -34 -51 -33 -51 8
-515 8 -515 -32 -32 -31 -32 -38 32 -37 32 -1 296 -1 296 -84 36 -85 37 -1363
0 -1363 0 -53 -35 -52 -36 0 -299 c0 -241 -3 -300 -13 -300 -7 0 -26 -14 -42
-30 l-29 -30 -31 30 c-17 16 -36 30 -43 30 -9 0 -12 67 -12 273 l0 272 -45 28
c-36 21 -58 27 -105 27 l-60 0 -2 166 -3 166 -59 24 -59 24 -1096 0 -1096 0
-38 -25 -37 -26 0 -159 0 -160 -40 0 c-35 0 -43 -4 -66 -40 l-26 -39 7 -351
c6 -289 5 -350 -6 -350 -7 0 -28 -14 -46 -32 l-33 -32 -33 32 c-18 18 -43 32
-55 32 l-22 0 0 360 0 359 -43 26 -44 25 -568 0 -568 0 -43 -25 -44 -26 -2
-262 -3 -262 -27 40 c-19 26 -28 53 -28 77 l0 38 -45 0 -45 0 0 372 c0 428 -4
458 -74 540 -46 53 -159 112 -239 124 -41 5 -54 13 -90 55 -34 40 -57 55 -119
79 -76 29 -81 30 -263 30 -178 0 -185 1 -185 20 0 20 -7 20 -499 20 l-500 0
-25 -33 c-15 -19 -26 -45 -26 -58 0 -16 -11 -31 -30 -44 l-30 -20 -2 -185 c-3
-261 -3 -260 32 -290 19 -16 30 -34 30 -50 0 -30 89 -145 120 -155 11 -3 20
-13 20 -22 0 -33 -64 -313 -72 -313 -4 0 -8 66 -8 148 l0 147 -45 28 -46 27
-560 0 -561 0 -49 -27 -49 -28 0 -267 0 -268 -37 -34 -38 -35 -32 32 -33 31 0
289 0 288 -26 35 -26 34 -617 0 -616 0 -28 -45 -28 -44 7 -278 6 -278 -36 -34
-36 -35 -35 34 -35 34 0 445 0 445 -42 43 -42 43 -816 0 -815 0 -36 -58 -36
-57 6 -430 6 -430 -32 -35 -33 -34 -33 32 c-18 18 -38 32 -45 32 -9 0 -12 41
-12 155 l0 155 -67 121 -68 122 -102 68 -102 69 -1777 0 -1777 0 -60 -66 c-47
-51 -74 -95 -119 -190 l-58 -123 0 -154 0 -153 -35 -34 -34 -33 -40 34 -39 34
-1 153 -1 153 -67 120 -66 121 -103 69 -103 69 -1775 0 -1774 0 -57 -57 c-44
-45 -70 -85 -116 -180 l-59 -123 0 -165 c0 -130 -3 -165 -13 -165 -7 0 -26
-14 -42 -30 l-29 -30 -31 30 c-17 16 -36 30 -43 30 -8 0 -11 72 -11 275 l0
275 -28 36 -28 37 -260 -6 c-143 -4 -420 -7 -615 -7 l-355 0 -22 -40 c-22 -38
-23 -48 -23 -299 l0 -261 -37 -34 -38 -35 -30 30 c-17 16 -36 29 -43 29 -9 0
-12 67 -12 273 l0 272 -49 28 -49 27 -561 0 -560 0 -46 -27 -45 -28 0 -249 0
-249 -20 26 c-13 16 -20 40 -20 66 l0 41 -45 0 -45 0 0 368 c0 425 -5 463 -76
545 -45 53 -160 112 -240 123 -43 6 -54 12 -89 55 -33 40 -54 54 -117 79 -76
29 -81 30 -263 30 -178 0 -185 1 -185 20 0 20 -7 20 -499 20 l-500 0 -25 -33z"/>
</g>
</svg>
